<svg width="25" height="22" viewBox="0 0 25 22" fill="none" xmlns="http://www.w3.org/2000/svg">
<path fill-rule="evenodd" clip-rule="evenodd" d="M8.5 1.00574e-08C8.31314 1.00574e-08 8.13825 0.051253 7.98862 0.140468L1.00386 4.13176C0.692286 4.3098 0.5 4.64114 0.5 5V21C0.5 21.3565 0.689758 21.686 0.998073 21.8649C1.30639 22.0438 1.68664 22.0451 1.99614 21.8682L8.53147 18.1338L16.0348 21.8854C16.1646 21.9538 16.3112 21.9944 16.4669 21.9995C16.4779 21.9998 16.489 22 16.5 22C16.6869 22 16.8618 21.9487 17.0114 21.8595L23.9961 17.8682C24.3077 17.6902 24.5 17.3589 24.5 17V1C24.5 0.64353 24.3102 0.314012 24.0019 0.13509C23.6936 -0.043832 23.3134 -0.045102 23.0039 0.131757L16.4685 3.86623L8.9652 0.114567C8.82855 0.0426226 8.67321 0.00138619 8.50837 3.44489e-05L8.5 1.00574e-08ZM17.5 19.2768L22.5 16.4197V2.72318L17.5 5.58032V19.2768ZM15.5 5.61803L9.5 2.61803V16.382L15.5 19.382V5.61803ZM2.5 5.58032L7.5 2.72318V16.4197L2.5 19.2768V5.58032Z" fill="black"/>
</svg>
