<svg width="1464" height="485" viewBox="0 0 1464 485" fill="none" xmlns="http://www.w3.org/2000/svg">
<rect width="1464" height="485" fill="transparent"/>
<path d="M680.01 188V100.476H711.016C742.103 100.476 757.646 114.697 757.646 143.139C757.646 156.77 753.394 167.655 744.89 175.793C736.427 183.931 725.135 188 711.016 188H680.01ZM699.724 116.528V172.009H709.49C718.035 172.009 724.728 169.445 729.57 164.318C734.453 159.191 736.895 152.213 736.895 143.383C736.895 135.042 734.473 128.491 729.631 123.73C724.83 118.929 718.075 116.528 709.368 116.528H699.724ZM826.433 162.243H785.662C786.313 171.317 792.03 175.854 802.812 175.854C809.689 175.854 815.732 174.226 820.94 170.971V184.887C815.162 187.98 807.655 189.526 798.418 189.526C788.327 189.526 780.494 186.739 774.919 181.164C769.345 175.549 766.558 167.736 766.558 157.727C766.558 147.351 769.569 139.131 775.591 133.068C781.613 127.006 789.019 123.974 797.808 123.974C806.922 123.974 813.962 126.68 818.926 132.092C823.931 137.504 826.433 144.848 826.433 154.125V162.243ZM808.55 150.402C808.55 141.451 804.928 136.975 797.686 136.975C794.593 136.975 791.908 138.256 789.629 140.82C787.391 143.383 786.028 146.577 785.54 150.402H808.55ZM894.06 162.243H853.289C853.94 171.317 859.657 175.854 870.439 175.854C877.316 175.854 883.359 174.226 888.567 170.971V184.887C882.789 187.98 875.282 189.526 866.045 189.526C855.954 189.526 848.121 186.739 842.546 181.164C836.972 175.549 834.185 167.736 834.185 157.727C834.185 147.351 837.196 139.131 843.218 133.068C849.24 127.006 856.646 123.974 865.435 123.974C874.549 123.974 881.589 126.68 886.553 132.092C891.558 137.504 894.06 144.848 894.06 154.125V162.243ZM876.177 150.402C876.177 141.451 872.555 136.975 865.312 136.975C862.22 136.975 859.535 138.256 857.256 140.82C855.018 143.383 853.655 146.577 853.167 150.402H876.177ZM925.066 180.737H924.822V216.748H905.535V125.5H924.822V134.899H925.066C929.827 127.616 936.52 123.974 945.146 123.974C953.244 123.974 959.49 126.761 963.884 132.336C968.319 137.87 970.537 145.418 970.537 154.98C970.537 165.397 967.953 173.758 962.786 180.065C957.659 186.372 950.823 189.526 942.278 189.526C934.75 189.526 929.013 186.596 925.066 180.737ZM924.517 155.102V160.107C924.517 164.42 925.656 167.94 927.935 170.666C930.213 173.392 933.204 174.755 936.907 174.755C941.301 174.755 944.699 173.067 947.1 169.689C949.541 166.271 950.762 161.45 950.762 155.224C950.762 144.238 946.489 138.745 937.944 138.745C933.997 138.745 930.763 140.25 928.24 143.261C925.758 146.232 924.517 150.179 924.517 155.102ZM1004.66 157.849V188H984.941V100.476H1015.83C1037.88 100.476 1048.91 109.773 1048.91 128.369C1048.91 137.158 1045.73 144.278 1039.38 149.731C1033.08 155.143 1024.63 157.849 1014.06 157.849H1004.66ZM1004.66 115.612V142.895H1012.41C1022.91 142.895 1028.15 138.297 1028.15 129.101C1028.15 120.109 1022.91 115.612 1012.41 115.612H1004.66ZM1108.66 188H1090.41V179.028H1090.17C1085.97 186.027 1079.77 189.526 1071.55 189.526C1065.49 189.526 1060.71 187.817 1057.21 184.399C1053.75 180.94 1052.02 176.342 1052.02 170.605C1052.02 158.479 1059.2 151.481 1073.56 149.609L1090.53 147.351C1090.53 140.515 1086.83 137.097 1079.42 137.097C1071.98 137.097 1064.9 139.314 1058.18 143.75V129.223C1060.87 127.84 1064.53 126.619 1069.17 125.561C1073.85 124.503 1078.1 123.974 1081.93 123.974C1099.75 123.974 1108.66 132.865 1108.66 150.646V188ZM1090.53 162.609V158.398L1079.18 159.863C1072.91 160.677 1069.78 163.505 1069.78 168.347C1069.78 170.544 1070.53 172.355 1072.04 173.779C1073.58 175.162 1075.66 175.854 1078.26 175.854C1081.89 175.854 1084.84 174.613 1087.11 172.131C1089.39 169.608 1090.53 166.434 1090.53 162.609ZM1183.43 125.5L1160.17 188H1138.2L1116.04 125.5H1136.67L1147.54 164.013C1148.76 168.367 1149.47 172.07 1149.68 175.122H1149.92C1150.2 172.233 1150.96 168.652 1152.18 164.379L1163.29 125.5H1183.43ZM1210.95 188H1191.67V95.4707H1210.95V188ZM1256.98 189.526C1246.56 189.526 1238.36 186.617 1232.38 180.798C1226.44 174.938 1223.47 167.004 1223.47 156.994C1223.47 146.659 1226.56 138.582 1232.74 132.763C1238.93 126.904 1247.29 123.974 1257.83 123.974C1268.21 123.974 1276.34 126.904 1282.24 132.763C1288.14 138.582 1291.09 146.293 1291.09 155.896C1291.09 166.271 1288.04 174.471 1281.94 180.493C1275.88 186.515 1267.55 189.526 1256.98 189.526ZM1257.46 138.745C1252.91 138.745 1249.37 140.311 1246.84 143.444C1244.32 146.577 1243.06 151.013 1243.06 156.75C1243.06 168.754 1247.9 174.755 1257.59 174.755C1266.82 174.755 1271.44 168.591 1271.44 156.262C1271.44 144.584 1266.78 138.745 1257.46 138.745ZM1363.12 125.5L1339.86 188H1317.89L1295.73 125.5H1316.36L1327.23 164.013C1328.45 168.367 1329.16 172.07 1329.36 175.122H1329.61C1329.89 172.233 1330.64 168.652 1331.87 164.379L1342.97 125.5H1363.12ZM681.475 354V266.476H705.645C736.488 266.476 751.909 280.697 751.909 309.139C751.909 322.648 747.616 333.513 739.031 341.732C730.486 349.911 719.032 354 704.668 354H681.475ZM691.729 275.753V344.723H704.79C716.265 344.723 725.196 341.651 731.584 335.506C737.973 329.362 741.167 320.654 741.167 309.383C741.167 286.963 729.245 275.753 705.4 275.753H691.729ZM813.555 275.753H779.375V306.026H810.991V315.243H779.375V354H769.121V266.476H813.555V275.753ZM874.59 275.753H840.41V306.026H872.026V315.243H840.41V354H830.156V266.476H874.59V275.753Z" fill="#1C36FB"/>
<path d="M409.453 355.716H244.919C236.635 355.716 229.919 349 229.919 340.716V312.162" stroke="url(#paint0_linear_165_45)" stroke-width="25"/>
<path d="M315.328 159.722H180.426C172.142 159.722 165.426 166.437 165.426 174.722V203.276" stroke="url(#paint1_linear_165_45)" stroke-width="25"/>
<path fill-rule="evenodd" clip-rule="evenodd" d="M551.044 68H365.956C357.144 68 350 75.4483 350 84.6364V234.364C350 243.552 357.144 251 365.956 251H551.044C559.856 251 567 243.552 567 234.364V84.6364C567 75.4484 559.856 68 551.044 68ZM386.813 86.7567H530.187H534.097C540.75 86.7567 546.143 91.948 546.143 98.3517V103.393V215.607V220.648C546.143 227.052 540.75 232.243 534.097 232.243H530.187H386.813H382.903C376.25 232.243 370.857 227.052 370.857 220.648V215.607V103.393V98.3517C370.857 91.948 376.25 86.7567 382.903 86.7567H386.813Z" fill="url(#paint2_linear_165_45)"/>
<path fill-rule="evenodd" clip-rule="evenodd" d="M551.044 68H365.956C357.144 68 350 75.4483 350 84.6364V234.364C350 243.552 357.144 251 365.956 251H551.044C559.856 251 567 243.552 567 234.364V84.6364C567 75.4484 559.856 68 551.044 68ZM386.813 86.7567H530.187H534.097C540.75 86.7567 546.143 91.948 546.143 98.3517V103.393V215.607V220.648C546.143 227.052 540.75 232.243 534.097 232.243H530.187H386.813H382.903C376.25 232.243 370.857 227.052 370.857 220.648V215.607V103.393V98.3517C370.857 91.948 376.25 86.7567 382.903 86.7567H386.813Z" fill="url(#paint3_linear_165_45)"/>
<rect x="101.081" y="197.535" width="190.377" height="117.168" rx="15" fill="#70DB97"/>
<path d="M101.081 212.535C101.081 204.251 107.796 197.535 116.081 197.535H238.028C252.538 199.879 251.806 215.813 254.883 223.781C262.122 242.528 268.95 256.588 291.458 279.553V299.703C291.458 307.988 284.742 314.703 276.458 314.703H116.081C107.796 314.703 101.081 307.988 101.081 299.703V212.535Z" fill="#61BCA7"/>
<path d="M100.143 212.535C100.143 204.251 106.858 197.535 115.143 197.535H198.135C209.398 198.473 212.167 206.909 213.259 212.07C216.432 227.062 218.308 245.34 244.098 280.49C264.677 308.539 277.859 314.703 277.859 314.703H115.143C106.858 314.703 100.143 307.988 100.143 299.703V212.535Z" fill="#077AC9"/>
<path d="M101.081 212.535C101.081 204.251 107.796 197.535 116.081 197.535H153.349C166.728 197.535 171.267 209.069 172.031 212.07C177.044 231.748 172.355 248.152 194.602 279.338C211.779 303.416 222.997 314.703 222.997 314.703H116.081C107.796 314.703 101.081 307.988 101.081 299.703V212.535Z" fill="#1C59E3"/>
<path d="M100 212.214C100 204.107 106.572 197.535 114.679 197.535V197.535C123.588 198.941 126.258 205.883 127.34 208.315C132.967 220.969 130.044 247.214 144.312 279.295C154.641 302.518 169.864 314.641 169.864 314.641H115C106.716 314.641 100 307.926 100 299.641V212.214Z" fill="#2036FF"/>
<rect x="315.84" y="100.989" width="190.377" height="117.168" rx="15" fill="#70DB97"/>
<path d="M315.84 115.989C315.84 107.705 322.556 100.989 330.84 100.989H452.788C467.298 103.333 466.566 119.267 469.642 127.235C476.882 145.982 483.71 160.042 506.217 183.007V203.157C506.217 211.442 499.502 218.157 491.217 218.157H330.84C322.556 218.157 315.84 211.442 315.84 203.157V115.989Z" fill="#61BCA7"/>
<path d="M314.903 115.989C314.903 107.705 321.619 100.989 329.903 100.989H412.896C424.159 101.927 426.927 110.363 428.019 115.524C431.192 130.516 433.068 148.794 458.858 183.944C479.437 211.993 492.619 218.157 492.619 218.157H329.903C321.619 218.157 314.903 211.442 314.903 203.157V115.989Z" fill="#077AC9"/>
<path d="M315.84 115.989C315.84 107.705 322.556 100.989 330.84 100.989H368.109C381.488 100.989 386.026 112.523 386.791 115.524C391.804 135.202 387.115 151.606 409.362 182.792C426.539 206.87 437.757 218.157 437.757 218.157H330.84C322.556 218.157 315.84 211.442 315.84 203.157V115.989Z" fill="#1C59E3"/>
<path d="M314.76 115.668C314.76 107.561 321.332 100.989 329.439 100.989V100.989C338.348 102.395 341.018 109.337 342.099 111.769C347.726 124.423 344.803 150.669 359.072 182.749C369.401 205.972 384.624 218.096 384.624 218.096H329.76C321.475 218.096 314.76 211.38 314.76 203.096V115.668Z" fill="#2036FF"/>
<rect x="409.623" y="297.832" width="190.377" height="117.168" rx="15" fill="#70DB97"/>
<path d="M409.623 312.832C409.623 304.548 416.338 297.832 424.623 297.832H546.57C561.08 300.175 560.348 316.11 563.425 324.078C570.664 342.825 577.492 356.885 600 379.85V400C600 408.284 593.284 415 585 415H424.623C416.338 415 409.623 408.284 409.623 400V312.832Z" fill="#61BCA7"/>
<path d="M408.685 312.832C408.685 304.548 415.401 297.832 423.685 297.832H506.678C517.941 298.769 520.709 307.205 521.801 312.367C524.974 327.358 526.85 345.637 552.64 380.787C573.22 408.836 586.402 415 586.402 415H423.685C415.401 415 408.685 408.284 408.685 400V312.832Z" fill="#077AC9"/>
<path d="M409.623 312.832C409.623 304.548 416.338 297.832 424.623 297.832H461.891C475.27 297.832 479.809 309.366 480.573 312.367C485.586 332.045 480.897 348.449 503.144 379.635C520.321 403.713 531.539 415 531.539 415H424.623C416.338 415 409.623 408.284 409.623 400V312.832Z" fill="#1C59E3"/>
<path d="M408.542 312.511C408.542 304.404 415.114 297.832 423.221 297.832V297.832C432.13 299.238 434.8 306.179 435.882 308.611C441.508 321.266 438.586 347.511 452.854 379.592C463.183 402.815 478.406 414.938 478.406 414.938H423.542C415.258 414.938 408.542 408.223 408.542 399.938V312.511Z" fill="#2036FF"/>
<defs>
<linearGradient id="paint0_linear_165_45" x1="365.077" y1="355.947" x2="238.721" y2="298.035" gradientUnits="userSpaceOnUse">
<stop offset="0.00312487" stop-color="#243AFC"/>
<stop offset="1" stop-color="#253AFB" stop-opacity="0.04"/>
</linearGradient>
<linearGradient id="paint1_linear_165_45" x1="291.458" y1="160.042" x2="176.705" y2="212.828" gradientUnits="userSpaceOnUse">
<stop offset="0.00312487" stop-color="#243AFC"/>
<stop offset="1" stop-color="#253AFB" stop-opacity="0.04"/>
</linearGradient>
<linearGradient id="paint2_linear_165_45" x1="585.641" y1="263.11" x2="352.517" y2="190.043" gradientUnits="userSpaceOnUse">
<stop stop-color="#2036FF"/>
<stop offset="1" stop-color="#2036FF" stop-opacity="0"/>
</linearGradient>
<linearGradient id="paint3_linear_165_45" x1="458.5" y1="68" x2="454.712" y2="218.27" gradientUnits="userSpaceOnUse">
<stop offset="0.330529" stop-color="#2036FF"/>
<stop offset="1" stop-color="#2036FF" stop-opacity="0"/>
</linearGradient>
</defs>
</svg>
